<?xml version="1.0" encoding="UTF-8"?>
<svg xmlns="http://www.w3.org/2000/svg" version="1.1" viewBox="0 0 410 44">
  <defs>
    <style>
      .cls-1 {
        fill: #fff;
      }

      .cls-2 {
        fill: #b49145;
      }
    </style>
  </defs>
  <!-- Generator: Adobe Illustrator 28.7.1, SVG Export Plug-In . SVG Version: 1.2.0 Build 142)  -->
  <g>
    <g id="Layer_1">
      <g>
        <path class="cls-2" d="M51.19,11.62c.58.24,1.09.56,1.53.99.44.42.79.95,1.06,1.57.27.63.4,1.32.4,2.07v3.24c0,.72-.19,1.36-.56,1.93-.38.56-.75.99-1.13,1.27.38.22.75.56,1.13,1.03.38.47.56,1.1.56,1.88v3.48c0,.75-.13,1.44-.4,2.07-.27.63-.62,1.15-1.06,1.57-.44.42-.95.75-1.53.99s-1.17.35-1.76.35H12.35V11.27h37.08c.6,0,1.18.12,1.76.35ZM17.38,20.15h29.98c.47,0,.88-.11,1.25-.33.36-.22.54-.64.54-1.27v-.52c0-.66-.16-1.12-.49-1.39-.33-.27-.78-.4-1.34-.4h-29.94v3.9ZM17.38,29.08h30.03c.56,0,.99-.09,1.29-.26.3-.17.45-.59.45-1.25v-.56c0-.63-.19-1.1-.56-1.41-.38-.31-.8-.47-1.27-.47h-29.94v3.95Z"/>
        <path class="cls-1" d="M122.87,11.62c.58.24,1.09.56,1.53.99.44.42.79.95,1.06,1.57.27.63.4,1.32.4,2.07v3.9c0,1.35-.34,2.43-1.01,3.24-.67.81-1.51,1.35-2.51,1.6l3.57,9.07h-5.12l-3.99-8.93h-27.73v8.93h-5.03V11.27h37.08c.6,0,1.18.12,1.76.35ZM89.05,20.15h29.98c.47,0,.88-.1,1.25-.31.36-.2.54-.62.54-1.25v-.52c0-.66-.16-1.13-.49-1.41-.33-.28-.78-.42-1.34-.42h-29.94v3.9Z"/>
        <path class="cls-1" d="M154.57,34.06l18.42-22.79h4.98l18.42,22.79h-6.2l-4.51-5.5h-20.4l-4.51,5.5h-6.2ZM169.19,23.72h12.6l-6.3-7.57-6.3,7.57Z"/>
        <path class="cls-1" d="M230.19,11.27l31.72,17.29V11.27h5.03v22.79h-5.08l-31.72-17.29v17.29h-5.03V11.27h5.08Z"/>
        <path class="cls-1" d="M296.79,11.27h41.83v4.98h-18.42v17.81h-5.03v-17.81h-18.38v-4.98Z"/>
        <path class="cls-1" d="M358.13,34.06l18.42-22.79h4.98l18.42,22.79h-6.2l-4.51-5.5h-20.4l-4.51,5.5h-6.2ZM372.74,23.72h12.6l-6.3-7.57-6.3,7.57Z"/>
      </g>
    </g>
  </g>
</svg>